<mxfile host="app.diagrams.net" modified="2021-07-27T09:00:54.738Z" agent="5.0 (Windows NT 10.0; Win64; x64) AppleWebKit/537.36 (KHTML, like Gecko) Chrome/92.0.4515.107 Safari/537.36 Edg/92.0.902.55" etag="yRUd7UFHWL0wENjfR9nW" version="14.9.2" type="github" pages="2">
  <diagram id="C5RBs43oDa-KdzZeNtuy" name="Page-1">
    <mxGraphModel dx="1038" dy="579" grid="0" gridSize="10" guides="1" tooltips="1" connect="1" arrows="1" fold="1" page="1" pageScale="1" pageWidth="827" pageHeight="1169" math="0" shadow="0">
      <root>
        <mxCell id="WIyWlLk6GJQsqaUBKTNV-0" />
        <mxCell id="WIyWlLk6GJQsqaUBKTNV-1" parent="WIyWlLk6GJQsqaUBKTNV-0" />
        <mxCell id="ZNMSevWMWKB2k7Ek5_Fw-40" style="edgeStyle=orthogonalEdgeStyle;rounded=0;jumpSize=4;orthogonalLoop=1;jettySize=auto;html=1;exitX=0.5;exitY=0.5;exitDx=0;exitDy=10;exitPerimeter=0;entryX=0.5;entryY=0;entryDx=0;entryDy=0;" parent="WIyWlLk6GJQsqaUBKTNV-1" source="ZNMSevWMWKB2k7Ek5_Fw-0" target="ZNMSevWMWKB2k7Ek5_Fw-1" edge="1">
          <mxGeometry relative="1" as="geometry" />
        </mxCell>
        <mxCell id="ZNMSevWMWKB2k7Ek5_Fw-0" value="开始" style="html=1;dashed=0;whitespace=wrap;shape=mxgraph.dfd.start" parent="WIyWlLk6GJQsqaUBKTNV-1" vertex="1">
          <mxGeometry x="360" y="80" width="80" height="20" as="geometry" />
        </mxCell>
        <mxCell id="ZNMSevWMWKB2k7Ek5_Fw-5" style="edgeStyle=orthogonalEdgeStyle;rounded=0;orthogonalLoop=1;jettySize=auto;html=1;exitX=0.5;exitY=1;exitDx=0;exitDy=0;entryX=0.5;entryY=0;entryDx=0;entryDy=0;" parent="WIyWlLk6GJQsqaUBKTNV-1" source="ZNMSevWMWKB2k7Ek5_Fw-1" target="ZNMSevWMWKB2k7Ek5_Fw-4" edge="1">
          <mxGeometry relative="1" as="geometry" />
        </mxCell>
        <mxCell id="ZNMSevWMWKB2k7Ek5_Fw-1" value="输入函数参数" style="shape=parallelogram;perimeter=parallelogramPerimeter;whiteSpace=wrap;html=1;fixedSize=1;" parent="WIyWlLk6GJQsqaUBKTNV-1" vertex="1">
          <mxGeometry x="340" y="120" width="120" height="40" as="geometry" />
        </mxCell>
        <mxCell id="ZNMSevWMWKB2k7Ek5_Fw-8" value="是" style="edgeStyle=orthogonalEdgeStyle;rounded=0;orthogonalLoop=1;jettySize=auto;html=1;exitX=0;exitY=0.5;exitDx=0;exitDy=0;" parent="WIyWlLk6GJQsqaUBKTNV-1" source="ZNMSevWMWKB2k7Ek5_Fw-4" target="ZNMSevWMWKB2k7Ek5_Fw-7" edge="1">
          <mxGeometry x="-0.4146" relative="1" as="geometry">
            <mxPoint as="offset" />
          </mxGeometry>
        </mxCell>
        <mxCell id="ZNMSevWMWKB2k7Ek5_Fw-11" value="否" style="edgeStyle=orthogonalEdgeStyle;rounded=0;orthogonalLoop=1;jettySize=auto;html=1;exitX=0.5;exitY=1;exitDx=0;exitDy=0;entryX=0.5;entryY=0;entryDx=0;entryDy=0;" parent="WIyWlLk6GJQsqaUBKTNV-1" source="ZNMSevWMWKB2k7Ek5_Fw-4" target="ZNMSevWMWKB2k7Ek5_Fw-10" edge="1">
          <mxGeometry relative="1" as="geometry" />
        </mxCell>
        <mxCell id="ZNMSevWMWKB2k7Ek5_Fw-4" value="判断pStateSize是否&lt;br&gt;为空指针？" style="rhombus;whiteSpace=wrap;html=1;" parent="WIyWlLk6GJQsqaUBKTNV-1" vertex="1">
          <mxGeometry x="320" y="180" width="160" height="70" as="geometry" />
        </mxCell>
        <mxCell id="ZNMSevWMWKB2k7Ek5_Fw-6" value="结束" style="html=1;dashed=0;whitespace=wrap;shape=mxgraph.dfd.start" parent="WIyWlLk6GJQsqaUBKTNV-1" vertex="1">
          <mxGeometry x="359" y="686" width="80" height="20" as="geometry" />
        </mxCell>
        <mxCell id="ZNMSevWMWKB2k7Ek5_Fw-9" style="edgeStyle=orthogonalEdgeStyle;rounded=0;orthogonalLoop=1;jettySize=auto;html=1;exitX=0.5;exitY=1;exitDx=0;exitDy=0;entryX=0;entryY=0.5;entryDx=0;entryDy=0;entryPerimeter=0;" parent="WIyWlLk6GJQsqaUBKTNV-1" source="ZNMSevWMWKB2k7Ek5_Fw-7" target="ZNMSevWMWKB2k7Ek5_Fw-6" edge="1">
          <mxGeometry relative="1" as="geometry" />
        </mxCell>
        <mxCell id="ZNMSevWMWKB2k7Ek5_Fw-7" value="返回错误HMPP_STS_NULL_PTR_ERR" style="rounded=0;whiteSpace=wrap;html=1;fillColor=#ffffff;gradientColor=none;" parent="WIyWlLk6GJQsqaUBKTNV-1" vertex="1">
          <mxGeometry x="120" y="295" width="170" height="40" as="geometry" />
        </mxCell>
        <mxCell id="ZNMSevWMWKB2k7Ek5_Fw-13" value="否" style="edgeStyle=orthogonalEdgeStyle;rounded=0;orthogonalLoop=1;jettySize=auto;html=1;exitX=0.5;exitY=1;exitDx=0;exitDy=0;entryX=0.5;entryY=0;entryDx=0;entryDy=0;" parent="WIyWlLk6GJQsqaUBKTNV-1" source="ZNMSevWMWKB2k7Ek5_Fw-10" target="ZNMSevWMWKB2k7Ek5_Fw-12" edge="1">
          <mxGeometry relative="1" as="geometry" />
        </mxCell>
        <mxCell id="ZNMSevWMWKB2k7Ek5_Fw-15" value="是" style="edgeStyle=orthogonalEdgeStyle;rounded=0;orthogonalLoop=1;jettySize=auto;html=1;exitX=1;exitY=0.5;exitDx=0;exitDy=0;entryX=0.5;entryY=0;entryDx=0;entryDy=0;" parent="WIyWlLk6GJQsqaUBKTNV-1" source="ZNMSevWMWKB2k7Ek5_Fw-10" target="ZNMSevWMWKB2k7Ek5_Fw-14" edge="1">
          <mxGeometry x="-0.5468" relative="1" as="geometry">
            <mxPoint as="offset" />
          </mxGeometry>
        </mxCell>
        <mxCell id="ZNMSevWMWKB2k7Ek5_Fw-10" value="判断dstRoi的高或者宽&lt;br&gt;是否小于等于0？" style="rhombus;whiteSpace=wrap;html=1;" parent="WIyWlLk6GJQsqaUBKTNV-1" vertex="1">
          <mxGeometry x="320" y="280" width="160" height="70" as="geometry" />
        </mxCell>
        <mxCell id="ZNMSevWMWKB2k7Ek5_Fw-18" value="是" style="edgeStyle=orthogonalEdgeStyle;rounded=0;orthogonalLoop=1;jettySize=auto;html=1;exitX=1;exitY=0.5;exitDx=0;exitDy=0;entryX=0.5;entryY=0;entryDx=0;entryDy=0;" parent="WIyWlLk6GJQsqaUBKTNV-1" source="ZNMSevWMWKB2k7Ek5_Fw-12" target="ZNMSevWMWKB2k7Ek5_Fw-17" edge="1">
          <mxGeometry x="-0.4595" relative="1" as="geometry">
            <mxPoint as="offset" />
            <mxPoint x="545" y="421" as="sourcePoint" />
          </mxGeometry>
        </mxCell>
        <mxCell id="ZNMSevWMWKB2k7Ek5_Fw-27" value="否" style="edgeStyle=orthogonalEdgeStyle;rounded=0;orthogonalLoop=1;jettySize=auto;html=1;exitX=0.5;exitY=1;exitDx=0;exitDy=0;entryX=0.5;entryY=0;entryDx=0;entryDy=0;" parent="WIyWlLk6GJQsqaUBKTNV-1" source="ZNMSevWMWKB2k7Ek5_Fw-12" target="ZNMSevWMWKB2k7Ek5_Fw-25" edge="1">
          <mxGeometry relative="1" as="geometry" />
        </mxCell>
        <mxCell id="ZNMSevWMWKB2k7Ek5_Fw-12" value="判断kerSize&amp;lt;=0&lt;br&gt;或者kerSize为偶数&lt;br&gt;或者rate&amp;lt;=1&lt;br&gt;或者rate&amp;gt;10?" style="rhombus;whiteSpace=wrap;html=1;" parent="WIyWlLk6GJQsqaUBKTNV-1" vertex="1">
          <mxGeometry x="300" y="380" width="200" height="100" as="geometry" />
        </mxCell>
        <mxCell id="ZNMSevWMWKB2k7Ek5_Fw-30" style="edgeStyle=orthogonalEdgeStyle;rounded=0;orthogonalLoop=1;jettySize=auto;html=1;exitX=0.5;exitY=1;exitDx=0;exitDy=0;entryX=1;entryY=0.5;entryDx=0;entryDy=0;entryPerimeter=0;" parent="WIyWlLk6GJQsqaUBKTNV-1" source="ZNMSevWMWKB2k7Ek5_Fw-14" target="ZNMSevWMWKB2k7Ek5_Fw-6" edge="1">
          <mxGeometry relative="1" as="geometry" />
        </mxCell>
        <mxCell id="ZNMSevWMWKB2k7Ek5_Fw-14" value="返回错误HMPP_STS_SIZE_ERR" style="rounded=0;whiteSpace=wrap;html=1;fillColor=#ffffff;gradientColor=none;" parent="WIyWlLk6GJQsqaUBKTNV-1" vertex="1">
          <mxGeometry x="646" y="401" width="140" height="40" as="geometry" />
        </mxCell>
        <mxCell id="ZNMSevWMWKB2k7Ek5_Fw-33" style="edgeStyle=orthogonalEdgeStyle;rounded=0;orthogonalLoop=1;jettySize=auto;html=1;jumpSize=4;" parent="WIyWlLk6GJQsqaUBKTNV-1" source="ZNMSevWMWKB2k7Ek5_Fw-17" edge="1">
          <mxGeometry relative="1" as="geometry">
            <mxPoint x="621" y="696" as="targetPoint" />
          </mxGeometry>
        </mxCell>
        <mxCell id="ZNMSevWMWKB2k7Ek5_Fw-17" value="返回错误HMPP_STS_BAD_ARG_ERR" style="rounded=0;whiteSpace=wrap;html=1;fillColor=#ffffff;gradientColor=none;" parent="WIyWlLk6GJQsqaUBKTNV-1" vertex="1">
          <mxGeometry x="536" y="503" width="170" height="40" as="geometry" />
        </mxCell>
        <mxCell id="SaX5oE3fyaT9kzEfwWuc-0" style="edgeStyle=orthogonalEdgeStyle;rounded=0;orthogonalLoop=1;jettySize=auto;html=1;entryX=0.5;entryY=0;entryDx=0;entryDy=0;" parent="WIyWlLk6GJQsqaUBKTNV-1" source="ZNMSevWMWKB2k7Ek5_Fw-25" target="ZNMSevWMWKB2k7Ek5_Fw-37" edge="1">
          <mxGeometry relative="1" as="geometry" />
        </mxCell>
        <mxCell id="ZNMSevWMWKB2k7Ek5_Fw-25" value="&lt;div&gt;*pStateSize = (dstRoi.width + kerSize / 2 * 2) * (dstRoi.height + kerSize / 2 * 2) * 4 +&lt;/div&gt;&lt;div&gt;&lt;span&gt;		&lt;/span&gt;(((kerSize + dstRoi.width - 1) * (kerSize + dstRoi.height - 1) + kerSize +&lt;/div&gt;&lt;div&gt;&lt;span&gt;			&lt;/span&gt;max(dstRoi.width, dstRoi.height) - 1) * 4 + kerSize * 4) * 2 + 304;&lt;/div&gt;" style="rounded=0;whiteSpace=wrap;html=1;fillColor=#ffffff;gradientColor=none;" parent="WIyWlLk6GJQsqaUBKTNV-1" vertex="1">
          <mxGeometry x="273" y="510" width="252" height="88" as="geometry" />
        </mxCell>
        <mxCell id="ZNMSevWMWKB2k7Ek5_Fw-39" style="edgeStyle=orthogonalEdgeStyle;rounded=0;orthogonalLoop=1;jettySize=auto;html=1;exitX=0.5;exitY=1;exitDx=0;exitDy=0;entryX=0.5;entryY=0;entryDx=0;entryDy=0;entryPerimeter=0;" parent="WIyWlLk6GJQsqaUBKTNV-1" source="ZNMSevWMWKB2k7Ek5_Fw-37" target="ZNMSevWMWKB2k7Ek5_Fw-6" edge="1">
          <mxGeometry relative="1" as="geometry" />
        </mxCell>
        <mxCell id="ZNMSevWMWKB2k7Ek5_Fw-37" value="返回HMPP_STS_NO_ERR" style="rounded=0;whiteSpace=wrap;html=1;fillColor=#ffffff;gradientColor=none;" parent="WIyWlLk6GJQsqaUBKTNV-1" vertex="1">
          <mxGeometry x="314" y="622" width="170" height="40" as="geometry" />
        </mxCell>
      </root>
    </mxGraphModel>
  </diagram>
  <diagram id="nAiDFFHblqINsn1WmNnx" name="Page-2">
    <mxGraphModel dx="1038" dy="579" grid="0" gridSize="10" guides="1" tooltips="1" connect="1" arrows="1" fold="1" page="1" pageScale="1" pageWidth="827" pageHeight="1169" math="0" shadow="0">
      <root>
        <mxCell id="dnIQIAc6OB_MlAxiYMZJ-0" />
        <mxCell id="dnIQIAc6OB_MlAxiYMZJ-1" parent="dnIQIAc6OB_MlAxiYMZJ-0" />
        <mxCell id="dnIQIAc6OB_MlAxiYMZJ-2" value="" style="shape=table;startSize=0;container=1;collapsible=0;childLayout=tableLayout;" vertex="1" parent="dnIQIAc6OB_MlAxiYMZJ-1">
          <mxGeometry x="160" y="80" width="320" height="320" as="geometry" />
        </mxCell>
        <mxCell id="dnIQIAc6OB_MlAxiYMZJ-3" value="" style="shape=partialRectangle;collapsible=0;dropTarget=0;pointerEvents=0;fillColor=none;top=0;left=0;bottom=0;right=0;points=[[0,0.5],[1,0.5]];portConstraint=eastwest;" vertex="1" parent="dnIQIAc6OB_MlAxiYMZJ-2">
          <mxGeometry width="320" height="41" as="geometry" />
        </mxCell>
        <mxCell id="dnIQIAc6OB_MlAxiYMZJ-4" value="" style="shape=partialRectangle;html=1;whiteSpace=wrap;connectable=0;overflow=hidden;fillColor=#fff2cc;top=0;left=0;bottom=0;right=0;strokeColor=#d6b656;" vertex="1" parent="dnIQIAc6OB_MlAxiYMZJ-3">
          <mxGeometry width="40" height="41" as="geometry" />
        </mxCell>
        <mxCell id="dnIQIAc6OB_MlAxiYMZJ-5" value="" style="shape=partialRectangle;html=1;whiteSpace=wrap;connectable=0;overflow=hidden;fillColor=#fff2cc;top=0;left=0;bottom=0;right=0;strokeColor=#d6b656;" vertex="1" parent="dnIQIAc6OB_MlAxiYMZJ-3">
          <mxGeometry x="40" width="40" height="41" as="geometry" />
        </mxCell>
        <mxCell id="dnIQIAc6OB_MlAxiYMZJ-6" value="" style="shape=partialRectangle;html=1;whiteSpace=wrap;connectable=0;overflow=hidden;fillColor=#fff2cc;top=0;left=0;bottom=0;right=0;strokeColor=#d6b656;" vertex="1" parent="dnIQIAc6OB_MlAxiYMZJ-3">
          <mxGeometry x="80" width="40" height="41" as="geometry" />
        </mxCell>
        <mxCell id="dnIQIAc6OB_MlAxiYMZJ-7" value="" style="shape=partialRectangle;html=1;whiteSpace=wrap;connectable=0;overflow=hidden;fillColor=#fff2cc;top=0;left=0;bottom=0;right=0;strokeColor=#d6b656;" vertex="1" parent="dnIQIAc6OB_MlAxiYMZJ-3">
          <mxGeometry x="120" width="40" height="41" as="geometry" />
        </mxCell>
        <mxCell id="dnIQIAc6OB_MlAxiYMZJ-8" value="" style="shape=partialRectangle;html=1;whiteSpace=wrap;connectable=0;overflow=hidden;fillColor=#fff2cc;top=0;left=0;bottom=0;right=0;strokeColor=#d6b656;" vertex="1" parent="dnIQIAc6OB_MlAxiYMZJ-3">
          <mxGeometry x="160" width="40" height="41" as="geometry" />
        </mxCell>
        <mxCell id="dnIQIAc6OB_MlAxiYMZJ-9" value="" style="shape=partialRectangle;html=1;whiteSpace=wrap;connectable=0;overflow=hidden;fillColor=#fff2cc;top=0;left=0;bottom=0;right=0;strokeColor=#d6b656;" vertex="1" parent="dnIQIAc6OB_MlAxiYMZJ-3">
          <mxGeometry x="200" width="40" height="41" as="geometry" />
        </mxCell>
        <mxCell id="dnIQIAc6OB_MlAxiYMZJ-10" value="" style="shape=partialRectangle;html=1;whiteSpace=wrap;connectable=0;overflow=hidden;fillColor=#fff2cc;top=0;left=0;bottom=0;right=0;strokeColor=#d6b656;" vertex="1" parent="dnIQIAc6OB_MlAxiYMZJ-3">
          <mxGeometry x="240" width="40" height="41" as="geometry" />
        </mxCell>
        <mxCell id="dnIQIAc6OB_MlAxiYMZJ-11" value="" style="shape=partialRectangle;html=1;whiteSpace=wrap;connectable=0;overflow=hidden;fillColor=#fff2cc;top=0;left=0;bottom=0;right=0;strokeColor=#d6b656;" vertex="1" parent="dnIQIAc6OB_MlAxiYMZJ-3">
          <mxGeometry x="280" width="40" height="41" as="geometry" />
        </mxCell>
        <mxCell id="dnIQIAc6OB_MlAxiYMZJ-12" value="" style="shape=partialRectangle;collapsible=0;dropTarget=0;pointerEvents=0;fillColor=none;top=0;left=0;bottom=0;right=0;points=[[0,0.5],[1,0.5]];portConstraint=eastwest;" vertex="1" parent="dnIQIAc6OB_MlAxiYMZJ-2">
          <mxGeometry y="41" width="320" height="40" as="geometry" />
        </mxCell>
        <mxCell id="dnIQIAc6OB_MlAxiYMZJ-13" value="" style="shape=partialRectangle;html=1;whiteSpace=wrap;connectable=0;overflow=hidden;fillColor=#fff2cc;top=0;left=0;bottom=0;right=0;strokeColor=#d6b656;" vertex="1" parent="dnIQIAc6OB_MlAxiYMZJ-12">
          <mxGeometry width="40" height="40" as="geometry" />
        </mxCell>
        <mxCell id="dnIQIAc6OB_MlAxiYMZJ-14" value="" style="shape=partialRectangle;html=1;whiteSpace=wrap;connectable=0;overflow=hidden;fillColor=#fff2cc;top=0;left=0;bottom=0;right=0;strokeColor=#d6b656;" vertex="1" parent="dnIQIAc6OB_MlAxiYMZJ-12">
          <mxGeometry x="40" width="40" height="40" as="geometry" />
        </mxCell>
        <mxCell id="dnIQIAc6OB_MlAxiYMZJ-15" value="" style="shape=partialRectangle;html=1;whiteSpace=wrap;connectable=0;overflow=hidden;fillColor=#fff2cc;top=0;left=0;bottom=0;right=0;strokeColor=#d6b656;" vertex="1" parent="dnIQIAc6OB_MlAxiYMZJ-12">
          <mxGeometry x="80" width="40" height="40" as="geometry" />
        </mxCell>
        <mxCell id="dnIQIAc6OB_MlAxiYMZJ-16" value="" style="shape=partialRectangle;html=1;whiteSpace=wrap;connectable=0;overflow=hidden;fillColor=#fff2cc;top=0;left=0;bottom=0;right=0;strokeColor=#d6b656;" vertex="1" parent="dnIQIAc6OB_MlAxiYMZJ-12">
          <mxGeometry x="120" width="40" height="40" as="geometry" />
        </mxCell>
        <mxCell id="dnIQIAc6OB_MlAxiYMZJ-17" value="" style="shape=partialRectangle;html=1;whiteSpace=wrap;connectable=0;overflow=hidden;fillColor=#fff2cc;top=0;left=0;bottom=0;right=0;strokeColor=#d6b656;" vertex="1" parent="dnIQIAc6OB_MlAxiYMZJ-12">
          <mxGeometry x="160" width="40" height="40" as="geometry" />
        </mxCell>
        <mxCell id="dnIQIAc6OB_MlAxiYMZJ-18" value="" style="shape=partialRectangle;html=1;whiteSpace=wrap;connectable=0;overflow=hidden;fillColor=#fff2cc;top=0;left=0;bottom=0;right=0;strokeColor=#d6b656;" vertex="1" parent="dnIQIAc6OB_MlAxiYMZJ-12">
          <mxGeometry x="200" width="40" height="40" as="geometry" />
        </mxCell>
        <mxCell id="dnIQIAc6OB_MlAxiYMZJ-19" value="" style="shape=partialRectangle;html=1;whiteSpace=wrap;connectable=0;overflow=hidden;fillColor=#fff2cc;top=0;left=0;bottom=0;right=0;strokeColor=#d6b656;" vertex="1" parent="dnIQIAc6OB_MlAxiYMZJ-12">
          <mxGeometry x="240" width="40" height="40" as="geometry" />
        </mxCell>
        <mxCell id="dnIQIAc6OB_MlAxiYMZJ-20" value="" style="shape=partialRectangle;html=1;whiteSpace=wrap;connectable=0;overflow=hidden;fillColor=#fff2cc;top=0;left=0;bottom=0;right=0;strokeColor=#d6b656;" vertex="1" parent="dnIQIAc6OB_MlAxiYMZJ-12">
          <mxGeometry x="280" width="40" height="40" as="geometry" />
        </mxCell>
        <mxCell id="dnIQIAc6OB_MlAxiYMZJ-21" value="" style="shape=partialRectangle;collapsible=0;dropTarget=0;pointerEvents=0;fillColor=none;top=0;left=0;bottom=0;right=0;points=[[0,0.5],[1,0.5]];portConstraint=eastwest;" vertex="1" parent="dnIQIAc6OB_MlAxiYMZJ-2">
          <mxGeometry y="81" width="320" height="40" as="geometry" />
        </mxCell>
        <mxCell id="dnIQIAc6OB_MlAxiYMZJ-22" value="" style="shape=partialRectangle;html=1;whiteSpace=wrap;connectable=0;overflow=hidden;fillColor=#fff2cc;top=0;left=0;bottom=0;right=0;strokeColor=#d6b656;" vertex="1" parent="dnIQIAc6OB_MlAxiYMZJ-21">
          <mxGeometry width="40" height="40" as="geometry" />
        </mxCell>
        <mxCell id="dnIQIAc6OB_MlAxiYMZJ-23" value="" style="shape=partialRectangle;html=1;whiteSpace=wrap;connectable=0;overflow=hidden;fillColor=#fff2cc;top=0;left=0;bottom=0;right=0;strokeColor=#d6b656;" vertex="1" parent="dnIQIAc6OB_MlAxiYMZJ-21">
          <mxGeometry x="40" width="40" height="40" as="geometry" />
        </mxCell>
        <mxCell id="dnIQIAc6OB_MlAxiYMZJ-24" value="1" style="shape=partialRectangle;html=1;whiteSpace=wrap;connectable=0;overflow=hidden;fillColor=#f8cecc;top=0;left=0;bottom=0;right=0;strokeColor=#b85450;" vertex="1" parent="dnIQIAc6OB_MlAxiYMZJ-21">
          <mxGeometry x="80" width="40" height="40" as="geometry" />
        </mxCell>
        <mxCell id="dnIQIAc6OB_MlAxiYMZJ-25" value="0" style="shape=partialRectangle;html=1;whiteSpace=wrap;connectable=0;overflow=hidden;fillColor=#d5e8d4;top=0;left=0;bottom=0;right=0;strokeColor=#82b366;" vertex="1" parent="dnIQIAc6OB_MlAxiYMZJ-21">
          <mxGeometry x="120" width="40" height="40" as="geometry" />
        </mxCell>
        <mxCell id="dnIQIAc6OB_MlAxiYMZJ-26" value="2" style="shape=partialRectangle;html=1;whiteSpace=wrap;connectable=0;overflow=hidden;fillColor=#f8cecc;top=0;left=0;bottom=0;right=0;strokeColor=#b85450;" vertex="1" parent="dnIQIAc6OB_MlAxiYMZJ-21">
          <mxGeometry x="160" width="40" height="40" as="geometry" />
        </mxCell>
        <mxCell id="dnIQIAc6OB_MlAxiYMZJ-27" value="0" style="shape=partialRectangle;html=1;whiteSpace=wrap;connectable=0;overflow=hidden;fillColor=#d5e8d4;top=0;left=0;bottom=0;right=0;strokeColor=#82b366;" vertex="1" parent="dnIQIAc6OB_MlAxiYMZJ-21">
          <mxGeometry x="200" width="40" height="40" as="geometry" />
        </mxCell>
        <mxCell id="dnIQIAc6OB_MlAxiYMZJ-28" value="" style="shape=partialRectangle;html=1;whiteSpace=wrap;connectable=0;overflow=hidden;fillColor=#fff2cc;top=0;left=0;bottom=0;right=0;strokeColor=#d6b656;" vertex="1" parent="dnIQIAc6OB_MlAxiYMZJ-21">
          <mxGeometry x="240" width="40" height="40" as="geometry" />
        </mxCell>
        <mxCell id="dnIQIAc6OB_MlAxiYMZJ-29" value="" style="shape=partialRectangle;html=1;whiteSpace=wrap;connectable=0;overflow=hidden;fillColor=#fff2cc;top=0;left=0;bottom=0;right=0;strokeColor=#d6b656;" vertex="1" parent="dnIQIAc6OB_MlAxiYMZJ-21">
          <mxGeometry x="280" width="40" height="40" as="geometry" />
        </mxCell>
        <mxCell id="dnIQIAc6OB_MlAxiYMZJ-30" value="" style="shape=partialRectangle;collapsible=0;dropTarget=0;pointerEvents=0;fillColor=none;top=0;left=0;bottom=0;right=0;points=[[0,0.5],[1,0.5]];portConstraint=eastwest;" vertex="1" parent="dnIQIAc6OB_MlAxiYMZJ-2">
          <mxGeometry y="121" width="320" height="39" as="geometry" />
        </mxCell>
        <mxCell id="dnIQIAc6OB_MlAxiYMZJ-31" value="" style="shape=partialRectangle;html=1;whiteSpace=wrap;connectable=0;overflow=hidden;fillColor=#fff2cc;top=0;left=0;bottom=0;right=0;strokeColor=#d6b656;" vertex="1" parent="dnIQIAc6OB_MlAxiYMZJ-30">
          <mxGeometry width="40" height="39" as="geometry" />
        </mxCell>
        <mxCell id="dnIQIAc6OB_MlAxiYMZJ-32" value="" style="shape=partialRectangle;html=1;whiteSpace=wrap;connectable=0;overflow=hidden;fillColor=#fff2cc;top=0;left=0;bottom=0;right=0;strokeColor=#d6b656;" vertex="1" parent="dnIQIAc6OB_MlAxiYMZJ-30">
          <mxGeometry x="40" width="40" height="39" as="geometry" />
        </mxCell>
        <mxCell id="dnIQIAc6OB_MlAxiYMZJ-33" value="0" style="shape=partialRectangle;html=1;whiteSpace=wrap;connectable=0;overflow=hidden;fillColor=#d5e8d4;top=0;left=0;bottom=0;right=0;strokeColor=#82b366;" vertex="1" parent="dnIQIAc6OB_MlAxiYMZJ-30">
          <mxGeometry x="80" width="40" height="39" as="geometry" />
        </mxCell>
        <mxCell id="dnIQIAc6OB_MlAxiYMZJ-34" value="0" style="shape=partialRectangle;html=1;whiteSpace=wrap;connectable=0;overflow=hidden;fillColor=#d5e8d4;top=0;left=0;bottom=0;right=0;strokeColor=#82b366;" vertex="1" parent="dnIQIAc6OB_MlAxiYMZJ-30">
          <mxGeometry x="120" width="40" height="39" as="geometry" />
        </mxCell>
        <mxCell id="dnIQIAc6OB_MlAxiYMZJ-35" value="0" style="shape=partialRectangle;html=1;whiteSpace=wrap;connectable=0;overflow=hidden;fillColor=#d5e8d4;top=0;left=0;bottom=0;right=0;strokeColor=#82b366;" vertex="1" parent="dnIQIAc6OB_MlAxiYMZJ-30">
          <mxGeometry x="160" width="40" height="39" as="geometry" />
        </mxCell>
        <mxCell id="dnIQIAc6OB_MlAxiYMZJ-36" value="0" style="shape=partialRectangle;html=1;whiteSpace=wrap;connectable=0;overflow=hidden;fillColor=#d5e8d4;top=0;left=0;bottom=0;right=0;strokeColor=#82b366;" vertex="1" parent="dnIQIAc6OB_MlAxiYMZJ-30">
          <mxGeometry x="200" width="40" height="39" as="geometry" />
        </mxCell>
        <mxCell id="dnIQIAc6OB_MlAxiYMZJ-37" value="" style="shape=partialRectangle;html=1;whiteSpace=wrap;connectable=0;overflow=hidden;fillColor=#fff2cc;top=0;left=0;bottom=0;right=0;strokeColor=#d6b656;" vertex="1" parent="dnIQIAc6OB_MlAxiYMZJ-30">
          <mxGeometry x="240" width="40" height="39" as="geometry" />
        </mxCell>
        <mxCell id="dnIQIAc6OB_MlAxiYMZJ-38" value="" style="shape=partialRectangle;html=1;whiteSpace=wrap;connectable=0;overflow=hidden;fillColor=#fff2cc;top=0;left=0;bottom=0;right=0;strokeColor=#d6b656;" vertex="1" parent="dnIQIAc6OB_MlAxiYMZJ-30">
          <mxGeometry x="280" width="40" height="39" as="geometry" />
        </mxCell>
        <mxCell id="dnIQIAc6OB_MlAxiYMZJ-39" value="" style="shape=partialRectangle;collapsible=0;dropTarget=0;pointerEvents=0;fillColor=none;top=0;left=0;bottom=0;right=0;points=[[0,0.5],[1,0.5]];portConstraint=eastwest;" vertex="1" parent="dnIQIAc6OB_MlAxiYMZJ-2">
          <mxGeometry y="160" width="320" height="41" as="geometry" />
        </mxCell>
        <mxCell id="dnIQIAc6OB_MlAxiYMZJ-40" value="" style="shape=partialRectangle;html=1;whiteSpace=wrap;connectable=0;overflow=hidden;fillColor=#fff2cc;top=0;left=0;bottom=0;right=0;strokeColor=#d6b656;" vertex="1" parent="dnIQIAc6OB_MlAxiYMZJ-39">
          <mxGeometry width="40" height="41" as="geometry" />
        </mxCell>
        <mxCell id="dnIQIAc6OB_MlAxiYMZJ-41" value="" style="shape=partialRectangle;html=1;whiteSpace=wrap;connectable=0;overflow=hidden;fillColor=#fff2cc;top=0;left=0;bottom=0;right=0;strokeColor=#d6b656;" vertex="1" parent="dnIQIAc6OB_MlAxiYMZJ-39">
          <mxGeometry x="40" width="40" height="41" as="geometry" />
        </mxCell>
        <mxCell id="dnIQIAc6OB_MlAxiYMZJ-42" value="3" style="shape=partialRectangle;html=1;whiteSpace=wrap;connectable=0;overflow=hidden;fillColor=#f8cecc;top=0;left=0;bottom=0;right=0;strokeColor=#b85450;" vertex="1" parent="dnIQIAc6OB_MlAxiYMZJ-39">
          <mxGeometry x="80" width="40" height="41" as="geometry" />
        </mxCell>
        <mxCell id="dnIQIAc6OB_MlAxiYMZJ-43" value="0" style="shape=partialRectangle;html=1;whiteSpace=wrap;connectable=0;overflow=hidden;fillColor=#d5e8d4;top=0;left=0;bottom=0;right=0;strokeColor=#82b366;" vertex="1" parent="dnIQIAc6OB_MlAxiYMZJ-39">
          <mxGeometry x="120" width="40" height="41" as="geometry" />
        </mxCell>
        <mxCell id="dnIQIAc6OB_MlAxiYMZJ-44" value="4" style="shape=partialRectangle;html=1;whiteSpace=wrap;connectable=0;overflow=hidden;fillColor=#f8cecc;top=0;left=0;bottom=0;right=0;strokeColor=#b85450;" vertex="1" parent="dnIQIAc6OB_MlAxiYMZJ-39">
          <mxGeometry x="160" width="40" height="41" as="geometry" />
        </mxCell>
        <mxCell id="dnIQIAc6OB_MlAxiYMZJ-45" value="0" style="shape=partialRectangle;html=1;whiteSpace=wrap;connectable=0;overflow=hidden;fillColor=#d5e8d4;top=0;left=0;bottom=0;right=0;strokeColor=#82b366;" vertex="1" parent="dnIQIAc6OB_MlAxiYMZJ-39">
          <mxGeometry x="200" width="40" height="41" as="geometry" />
        </mxCell>
        <mxCell id="dnIQIAc6OB_MlAxiYMZJ-46" value="" style="shape=partialRectangle;html=1;whiteSpace=wrap;connectable=0;overflow=hidden;fillColor=#fff2cc;top=0;left=0;bottom=0;right=0;strokeColor=#d6b656;" vertex="1" parent="dnIQIAc6OB_MlAxiYMZJ-39">
          <mxGeometry x="240" width="40" height="41" as="geometry" />
        </mxCell>
        <mxCell id="dnIQIAc6OB_MlAxiYMZJ-47" value="" style="shape=partialRectangle;html=1;whiteSpace=wrap;connectable=0;overflow=hidden;fillColor=#fff2cc;top=0;left=0;bottom=0;right=0;strokeColor=#d6b656;" vertex="1" parent="dnIQIAc6OB_MlAxiYMZJ-39">
          <mxGeometry x="280" width="40" height="41" as="geometry" />
        </mxCell>
        <mxCell id="dnIQIAc6OB_MlAxiYMZJ-48" value="" style="shape=partialRectangle;collapsible=0;dropTarget=0;pointerEvents=0;fillColor=none;top=0;left=0;bottom=0;right=0;points=[[0,0.5],[1,0.5]];portConstraint=eastwest;" vertex="1" parent="dnIQIAc6OB_MlAxiYMZJ-2">
          <mxGeometry y="201" width="320" height="40" as="geometry" />
        </mxCell>
        <mxCell id="dnIQIAc6OB_MlAxiYMZJ-49" value="" style="shape=partialRectangle;html=1;whiteSpace=wrap;connectable=0;overflow=hidden;fillColor=#fff2cc;top=0;left=0;bottom=0;right=0;strokeColor=#d6b656;" vertex="1" parent="dnIQIAc6OB_MlAxiYMZJ-48">
          <mxGeometry width="40" height="40" as="geometry" />
        </mxCell>
        <mxCell id="dnIQIAc6OB_MlAxiYMZJ-50" value="" style="shape=partialRectangle;html=1;whiteSpace=wrap;connectable=0;overflow=hidden;fillColor=#fff2cc;top=0;left=0;bottom=0;right=0;strokeColor=#d6b656;" vertex="1" parent="dnIQIAc6OB_MlAxiYMZJ-48">
          <mxGeometry x="40" width="40" height="40" as="geometry" />
        </mxCell>
        <mxCell id="dnIQIAc6OB_MlAxiYMZJ-51" value="0" style="shape=partialRectangle;html=1;whiteSpace=wrap;connectable=0;overflow=hidden;fillColor=#d5e8d4;top=0;left=0;bottom=0;right=0;strokeColor=#82b366;" vertex="1" parent="dnIQIAc6OB_MlAxiYMZJ-48">
          <mxGeometry x="80" width="40" height="40" as="geometry" />
        </mxCell>
        <mxCell id="dnIQIAc6OB_MlAxiYMZJ-52" value="0" style="shape=partialRectangle;html=1;whiteSpace=wrap;connectable=0;overflow=hidden;fillColor=#d5e8d4;top=0;left=0;bottom=0;right=0;strokeColor=#82b366;" vertex="1" parent="dnIQIAc6OB_MlAxiYMZJ-48">
          <mxGeometry x="120" width="40" height="40" as="geometry" />
        </mxCell>
        <mxCell id="dnIQIAc6OB_MlAxiYMZJ-53" value="0" style="shape=partialRectangle;html=1;whiteSpace=wrap;connectable=0;overflow=hidden;fillColor=#d5e8d4;top=0;left=0;bottom=0;right=0;strokeColor=#82b366;" vertex="1" parent="dnIQIAc6OB_MlAxiYMZJ-48">
          <mxGeometry x="160" width="40" height="40" as="geometry" />
        </mxCell>
        <mxCell id="dnIQIAc6OB_MlAxiYMZJ-54" value="0" style="shape=partialRectangle;html=1;whiteSpace=wrap;connectable=0;overflow=hidden;fillColor=#d5e8d4;top=0;left=0;bottom=0;right=0;strokeColor=#82b366;" vertex="1" parent="dnIQIAc6OB_MlAxiYMZJ-48">
          <mxGeometry x="200" width="40" height="40" as="geometry" />
        </mxCell>
        <mxCell id="dnIQIAc6OB_MlAxiYMZJ-55" value="" style="shape=partialRectangle;html=1;whiteSpace=wrap;connectable=0;overflow=hidden;fillColor=#fff2cc;top=0;left=0;bottom=0;right=0;strokeColor=#d6b656;" vertex="1" parent="dnIQIAc6OB_MlAxiYMZJ-48">
          <mxGeometry x="240" width="40" height="40" as="geometry" />
        </mxCell>
        <mxCell id="dnIQIAc6OB_MlAxiYMZJ-56" value="" style="shape=partialRectangle;html=1;whiteSpace=wrap;connectable=0;overflow=hidden;fillColor=#fff2cc;top=0;left=0;bottom=0;right=0;strokeColor=#d6b656;" vertex="1" parent="dnIQIAc6OB_MlAxiYMZJ-48">
          <mxGeometry x="280" width="40" height="40" as="geometry" />
        </mxCell>
        <mxCell id="dnIQIAc6OB_MlAxiYMZJ-57" value="" style="shape=partialRectangle;collapsible=0;dropTarget=0;pointerEvents=0;fillColor=none;top=0;left=0;bottom=0;right=0;points=[[0,0.5],[1,0.5]];portConstraint=eastwest;" vertex="1" parent="dnIQIAc6OB_MlAxiYMZJ-2">
          <mxGeometry y="241" width="320" height="40" as="geometry" />
        </mxCell>
        <mxCell id="dnIQIAc6OB_MlAxiYMZJ-58" value="" style="shape=partialRectangle;html=1;whiteSpace=wrap;connectable=0;overflow=hidden;fillColor=#fff2cc;top=0;left=0;bottom=0;right=0;strokeColor=#d6b656;" vertex="1" parent="dnIQIAc6OB_MlAxiYMZJ-57">
          <mxGeometry width="40" height="40" as="geometry" />
        </mxCell>
        <mxCell id="dnIQIAc6OB_MlAxiYMZJ-59" value="" style="shape=partialRectangle;html=1;whiteSpace=wrap;connectable=0;overflow=hidden;fillColor=#fff2cc;top=0;left=0;bottom=0;right=0;strokeColor=#d6b656;" vertex="1" parent="dnIQIAc6OB_MlAxiYMZJ-57">
          <mxGeometry x="40" width="40" height="40" as="geometry" />
        </mxCell>
        <mxCell id="dnIQIAc6OB_MlAxiYMZJ-60" value="" style="shape=partialRectangle;html=1;whiteSpace=wrap;connectable=0;overflow=hidden;fillColor=#fff2cc;top=0;left=0;bottom=0;right=0;strokeColor=#d6b656;" vertex="1" parent="dnIQIAc6OB_MlAxiYMZJ-57">
          <mxGeometry x="80" width="40" height="40" as="geometry" />
        </mxCell>
        <mxCell id="dnIQIAc6OB_MlAxiYMZJ-61" value="" style="shape=partialRectangle;html=1;whiteSpace=wrap;connectable=0;overflow=hidden;fillColor=#fff2cc;top=0;left=0;bottom=0;right=0;strokeColor=#d6b656;" vertex="1" parent="dnIQIAc6OB_MlAxiYMZJ-57">
          <mxGeometry x="120" width="40" height="40" as="geometry" />
        </mxCell>
        <mxCell id="dnIQIAc6OB_MlAxiYMZJ-62" value="" style="shape=partialRectangle;html=1;whiteSpace=wrap;connectable=0;overflow=hidden;fillColor=#fff2cc;top=0;left=0;bottom=0;right=0;strokeColor=#d6b656;" vertex="1" parent="dnIQIAc6OB_MlAxiYMZJ-57">
          <mxGeometry x="160" width="40" height="40" as="geometry" />
        </mxCell>
        <mxCell id="dnIQIAc6OB_MlAxiYMZJ-63" value="" style="shape=partialRectangle;html=1;whiteSpace=wrap;connectable=0;overflow=hidden;fillColor=#fff2cc;top=0;left=0;bottom=0;right=0;strokeColor=#d6b656;" vertex="1" parent="dnIQIAc6OB_MlAxiYMZJ-57">
          <mxGeometry x="200" width="40" height="40" as="geometry" />
        </mxCell>
        <mxCell id="dnIQIAc6OB_MlAxiYMZJ-64" value="" style="shape=partialRectangle;html=1;whiteSpace=wrap;connectable=0;overflow=hidden;fillColor=#fff2cc;top=0;left=0;bottom=0;right=0;strokeColor=#d6b656;" vertex="1" parent="dnIQIAc6OB_MlAxiYMZJ-57">
          <mxGeometry x="240" width="40" height="40" as="geometry" />
        </mxCell>
        <mxCell id="dnIQIAc6OB_MlAxiYMZJ-65" value="" style="shape=partialRectangle;html=1;whiteSpace=wrap;connectable=0;overflow=hidden;fillColor=#fff2cc;top=0;left=0;bottom=0;right=0;strokeColor=#d6b656;" vertex="1" parent="dnIQIAc6OB_MlAxiYMZJ-57">
          <mxGeometry x="280" width="40" height="40" as="geometry" />
        </mxCell>
        <mxCell id="dnIQIAc6OB_MlAxiYMZJ-66" value="" style="shape=partialRectangle;collapsible=0;dropTarget=0;pointerEvents=0;fillColor=none;top=0;left=0;bottom=0;right=0;points=[[0,0.5],[1,0.5]];portConstraint=eastwest;" vertex="1" parent="dnIQIAc6OB_MlAxiYMZJ-2">
          <mxGeometry y="281" width="320" height="39" as="geometry" />
        </mxCell>
        <mxCell id="dnIQIAc6OB_MlAxiYMZJ-67" value="" style="shape=partialRectangle;html=1;whiteSpace=wrap;connectable=0;overflow=hidden;fillColor=#fff2cc;top=0;left=0;bottom=0;right=0;strokeColor=#d6b656;" vertex="1" parent="dnIQIAc6OB_MlAxiYMZJ-66">
          <mxGeometry width="40" height="39" as="geometry" />
        </mxCell>
        <mxCell id="dnIQIAc6OB_MlAxiYMZJ-68" value="" style="shape=partialRectangle;html=1;whiteSpace=wrap;connectable=0;overflow=hidden;fillColor=#fff2cc;top=0;left=0;bottom=0;right=0;strokeColor=#d6b656;" vertex="1" parent="dnIQIAc6OB_MlAxiYMZJ-66">
          <mxGeometry x="40" width="40" height="39" as="geometry" />
        </mxCell>
        <mxCell id="dnIQIAc6OB_MlAxiYMZJ-69" value="" style="shape=partialRectangle;html=1;whiteSpace=wrap;connectable=0;overflow=hidden;fillColor=#fff2cc;top=0;left=0;bottom=0;right=0;strokeColor=#d6b656;" vertex="1" parent="dnIQIAc6OB_MlAxiYMZJ-66">
          <mxGeometry x="80" width="40" height="39" as="geometry" />
        </mxCell>
        <mxCell id="dnIQIAc6OB_MlAxiYMZJ-70" value="" style="shape=partialRectangle;html=1;whiteSpace=wrap;connectable=0;overflow=hidden;fillColor=#fff2cc;top=0;left=0;bottom=0;right=0;strokeColor=#d6b656;" vertex="1" parent="dnIQIAc6OB_MlAxiYMZJ-66">
          <mxGeometry x="120" width="40" height="39" as="geometry" />
        </mxCell>
        <mxCell id="dnIQIAc6OB_MlAxiYMZJ-71" value="" style="shape=partialRectangle;html=1;whiteSpace=wrap;connectable=0;overflow=hidden;fillColor=#fff2cc;top=0;left=0;bottom=0;right=0;strokeColor=#d6b656;" vertex="1" parent="dnIQIAc6OB_MlAxiYMZJ-66">
          <mxGeometry x="160" width="40" height="39" as="geometry" />
        </mxCell>
        <mxCell id="dnIQIAc6OB_MlAxiYMZJ-72" value="" style="shape=partialRectangle;html=1;whiteSpace=wrap;connectable=0;overflow=hidden;fillColor=#fff2cc;top=0;left=0;bottom=0;right=0;strokeColor=#d6b656;" vertex="1" parent="dnIQIAc6OB_MlAxiYMZJ-66">
          <mxGeometry x="200" width="40" height="39" as="geometry" />
        </mxCell>
        <mxCell id="dnIQIAc6OB_MlAxiYMZJ-73" value="" style="shape=partialRectangle;html=1;whiteSpace=wrap;connectable=0;overflow=hidden;fillColor=#fff2cc;top=0;left=0;bottom=0;right=0;strokeColor=#d6b656;" vertex="1" parent="dnIQIAc6OB_MlAxiYMZJ-66">
          <mxGeometry x="240" width="40" height="39" as="geometry" />
        </mxCell>
        <mxCell id="dnIQIAc6OB_MlAxiYMZJ-74" value="" style="shape=partialRectangle;html=1;whiteSpace=wrap;connectable=0;overflow=hidden;fillColor=#fff2cc;top=0;left=0;bottom=0;right=0;strokeColor=#d6b656;" vertex="1" parent="dnIQIAc6OB_MlAxiYMZJ-66">
          <mxGeometry x="280" width="40" height="39" as="geometry" />
        </mxCell>
        <mxCell id="dnIQIAc6OB_MlAxiYMZJ-75" value="" style="shape=curlyBracket;whiteSpace=wrap;html=1;rounded=1;direction=south;" vertex="1" parent="dnIQIAc6OB_MlAxiYMZJ-1">
          <mxGeometry x="240" y="50" width="160" height="20" as="geometry" />
        </mxCell>
        <mxCell id="dnIQIAc6OB_MlAxiYMZJ-76" value="width*2" style="text;html=1;align=center;verticalAlign=middle;resizable=0;points=[];autosize=1;strokeColor=none;" vertex="1" parent="dnIQIAc6OB_MlAxiYMZJ-1">
          <mxGeometry x="295" y="30" width="50" height="20" as="geometry" />
        </mxCell>
        <mxCell id="dnIQIAc6OB_MlAxiYMZJ-77" value="" style="shape=curlyBracket;whiteSpace=wrap;html=1;rounded=1;direction=west;" vertex="1" parent="dnIQIAc6OB_MlAxiYMZJ-1">
          <mxGeometry x="490" y="160" width="20" height="160" as="geometry" />
        </mxCell>
        <mxCell id="dnIQIAc6OB_MlAxiYMZJ-78" value="height*2" style="text;html=1;align=center;verticalAlign=middle;resizable=0;points=[];autosize=1;strokeColor=none;" vertex="1" parent="dnIQIAc6OB_MlAxiYMZJ-1">
          <mxGeometry x="515" y="230" width="60" height="20" as="geometry" />
        </mxCell>
        <mxCell id="dnIQIAc6OB_MlAxiYMZJ-79" value="" style="shape=curlyBracket;whiteSpace=wrap;html=1;rounded=1;flipH=1;" vertex="1" parent="dnIQIAc6OB_MlAxiYMZJ-1">
          <mxGeometry x="490" y="80" width="20" height="80" as="geometry" />
        </mxCell>
        <mxCell id="dnIQIAc6OB_MlAxiYMZJ-80" value="kerSize/2" style="text;html=1;align=center;verticalAlign=middle;resizable=0;points=[];autosize=1;strokeColor=none;" vertex="1" parent="dnIQIAc6OB_MlAxiYMZJ-1">
          <mxGeometry x="510" y="110" width="70" height="20" as="geometry" />
        </mxCell>
        <mxCell id="dnIQIAc6OB_MlAxiYMZJ-81" value="" style="shape=curlyBracket;whiteSpace=wrap;html=1;rounded=1;flipH=1;direction=south;" vertex="1" parent="dnIQIAc6OB_MlAxiYMZJ-1">
          <mxGeometry x="400" y="50" width="80" height="20" as="geometry" />
        </mxCell>
        <mxCell id="dnIQIAc6OB_MlAxiYMZJ-82" value="kerSize/2" style="text;html=1;align=center;verticalAlign=middle;resizable=0;points=[];autosize=1;strokeColor=none;" vertex="1" parent="dnIQIAc6OB_MlAxiYMZJ-1">
          <mxGeometry x="405" y="30" width="70" height="20" as="geometry" />
        </mxCell>
        <mxCell id="dnIQIAc6OB_MlAxiYMZJ-84" value="Source Image ROI" style="text;html=1;align=center;verticalAlign=middle;resizable=0;points=[];autosize=1;strokeColor=none;" vertex="1" parent="dnIQIAc6OB_MlAxiYMZJ-1">
          <mxGeometry x="25" y="100" width="110" height="20" as="geometry" />
        </mxCell>
        <mxCell id="dnIQIAc6OB_MlAxiYMZJ-86" value="Mirrored Pixels" style="text;html=1;align=center;verticalAlign=middle;resizable=0;points=[];autosize=1;strokeColor=none;" vertex="1" parent="dnIQIAc6OB_MlAxiYMZJ-1">
          <mxGeometry x="25" y="260" width="100" height="20" as="geometry" />
        </mxCell>
        <mxCell id="dnIQIAc6OB_MlAxiYMZJ-87" value="" style="endArrow=classic;html=1;exitX=0.254;exitY=0.01;exitDx=0;exitDy=0;exitPerimeter=0;" edge="1" parent="dnIQIAc6OB_MlAxiYMZJ-1" source="dnIQIAc6OB_MlAxiYMZJ-66">
          <mxGeometry width="50" height="50" relative="1" as="geometry">
            <mxPoint x="390" y="320" as="sourcePoint" />
            <mxPoint x="80" y="280" as="targetPoint" />
          </mxGeometry>
        </mxCell>
        <mxCell id="dnIQIAc6OB_MlAxiYMZJ-88" value="" style="endArrow=classic;html=1;" edge="1" parent="dnIQIAc6OB_MlAxiYMZJ-1">
          <mxGeometry width="50" height="50" relative="1" as="geometry">
            <mxPoint x="240" y="201" as="sourcePoint" />
            <mxPoint x="81" y="120" as="targetPoint" />
          </mxGeometry>
        </mxCell>
        <mxCell id="dnIQIAc6OB_MlAxiYMZJ-89" value="" style="endArrow=classic;html=1;" edge="1" parent="dnIQIAc6OB_MlAxiYMZJ-1">
          <mxGeometry width="50" height="50" relative="1" as="geometry">
            <mxPoint x="240" y="240" as="sourcePoint" />
            <mxPoint x="80" y="160" as="targetPoint" />
          </mxGeometry>
        </mxCell>
        <mxCell id="dnIQIAc6OB_MlAxiYMZJ-90" value="Added Pixels" style="text;html=1;align=center;verticalAlign=middle;resizable=0;points=[];autosize=1;strokeColor=none;" vertex="1" parent="dnIQIAc6OB_MlAxiYMZJ-1">
          <mxGeometry x="35" y="140" width="90" height="20" as="geometry" />
        </mxCell>
      </root>
    </mxGraphModel>
  </diagram>
</mxfile>
